<?xml version="1.0" standalone="no"?>
<!DOCTYPE svg PUBLIC "-//W3C//DTD SVG 20010904//EN"
 "http://www.w3.org/TR/2001/REC-SVG-20010904/DTD/svg10.dtd">
<svg version="1.0" xmlns="http://www.w3.org/2000/svg"
 width="910.000000pt" height="626.000000pt" viewBox="0 0 910.000000 626.000000"
 preserveAspectRatio="xMidYMid meet">
<metadata>
Created by potrace 1.16, written by Peter Selinger 2001-2019
</metadata>
<g transform="translate(0.000000,626.000000) scale(0.100000,-0.100000)"
fill="#000000" stroke="none">
<path d="M2781 6244 c-103 -28 4 85 -1361 -1424 -261 -289 -601 -665 -755
-835 -565 -623 -615 -681 -636 -725 -44 -93 -29 -243 33 -326 21 -28 146 -167
753 -839 156 -171 1438 -1592 1753 -1942 61 -68 97 -99 140 -120 l57 -28 2605
-3 c1881 -2 2633 0 2705 8 425 48 730 249 903 595 33 68 71 181 98 300 18 77
19 169 19 2210 0 2006 -1 2135 -18 2218 -98 483 -396 778 -910 900 l-92 22
-2620 2 c-2273 2 -2627 0 -2674 -13z m5167 -716 c193 -70 315 -193 366 -368
15 -50 16 -241 16 -2021 0 -2173 5 -2009 -65 -2157 -38 -81 -116 -170 -183
-209 -23 -14 -71 -35 -105 -47 l-62 -21 -2436 -3 -2436 -2 -70 77 c-211 236
-1719 1913 -1898 2112 -115 128 -211 237 -213 241 -1 4 161 187 360 406 652
717 1722 1897 1778 1961 l55 61 2410 -1 2410 -2 73 -27z"/>
<path d="M4444 4254 c-58 -21 -120 -77 -151 -138 -21 -41 -26 -66 -27 -126 -1
-127 0 -130 387 -517 l342 -343 -338 -337 c-220 -221 -344 -352 -358 -380 -11
-22 -25 -68 -31 -100 -14 -75 6 -146 60 -219 53 -70 115 -99 212 -99 139 0
133 -5 520 381 l345 344 335 -335 c363 -363 383 -379 496 -391 135 -14 246 55
294 182 17 47 21 71 16 117 -11 114 -20 125 -389 495 l-342 342 342 343 c221
222 349 358 364 387 33 63 34 196 2 256 -48 91 -154 154 -257 154 -116 0 -118
-2 -503 -384 l-353 -350 -117 116 c-592 584 -585 577 -640 598 -63 23 -149 25
-209 4z"/>
</g>
</svg>
