<?xml version="1.0" standalone="no"?>
<!DOCTYPE svg PUBLIC "-//W3C//DTD SVG 20010904//EN"
 "http://www.w3.org/TR/2001/REC-SVG-20010904/DTD/svg10.dtd">
<svg version="1.0" xmlns="http://www.w3.org/2000/svg"
 width="840.000000pt" height="480.000000pt" viewBox="0 0 840.000000 480.000000"
 preserveAspectRatio="xMidYMid meet">
<metadata>
Created by potrace 1.16, written by Peter Selinger 2001-2019
</metadata>
<g transform="translate(0.000000,480.000000) scale(0.100000,-0.100000)"
fill="#000000" stroke="none">
<path d="M2905 4376 c-40 -18 -113 -87 -350 -330 -169 -172 -308 -323 -318
-344 -27 -57 -20 -157 16 -211 40 -61 97 -94 168 -99 92 -7 129 12 244 128 55
55 103 100 107 100 5 0 8 -559 8 -1242 0 -1235 0 -1242 21 -1284 11 -24 36
-57 55 -73 72 -63 17 -61 1342 -61 l1204 0 -97 -101 c-53 -56 -106 -120 -116
-143 -40 -87 -16 -190 59 -258 67 -60 161 -73 244 -34 54 26 643 623 668 678
24 53 26 132 4 184 -11 28 -107 128 -326 344 -171 168 -324 313 -342 322 -85
46 -183 30 -256 -41 -51 -49 -70 -95 -70 -166 1 -71 33 -123 143 -227 l102
-98 -215 0 c-818 -1 -1634 0 -1636 3 -2 1 296 302 661 667 l665 665 0 -154 c0
-136 2 -160 21 -198 68 -141 254 -168 367 -52 62 63 63 78 60 570 -3 436 -3
445 -25 485 -27 51 -69 87 -125 108 -38 15 -95 16 -488 14 l-445 -3 -45 -27
c-76 -44 -111 -107 -111 -196 0 -88 55 -172 136 -207 11 -5 91 -12 178 -15
l157 -5 -670 -670 -670 -670 0 950 0 950 108 -107 c60 -61 123 -114 144 -123
81 -33 192 -11 250 51 61 65 79 175 40 249 -32 62 -626 649 -682 674 -60 27
-123 26 -185 -3z"/>
</g>
</svg>
