<?xml version="1.0" standalone="no"?>
<!DOCTYPE svg PUBLIC "-//W3C//DTD SVG 20010904//EN"
 "http://www.w3.org/TR/2001/REC-SVG-20010904/DTD/svg10.dtd">
<svg version="1.0" xmlns="http://www.w3.org/2000/svg"
 width="512.000000pt" height="512.000000pt" viewBox="0 0 512.000000 512.000000"
 preserveAspectRatio="xMidYMid meet">
<metadata>
Created by potrace 1.16, written by Peter Selinger 2001-2019
</metadata>
<g transform="translate(0.000000,512.000000) scale(0.100000,-0.100000)"
fill="#000000" stroke="none">
<path d="M208 3505 c-56 -21 -121 -69 -151 -112 -59 -85 -58 -62 -55 -848 l3
-720 23 -47 c30 -60 90 -120 150 -150 l47 -23 2335 0 2335 0 47 23 c60 30 120
90 150 150 l23 47 0 735 0 735 -23 47 c-34 68 -104 134 -171 159 -77 29 -195
24 -266 -11 -68 -33 -129 -99 -154 -166 -20 -53 -21 -74 -21 -569 l0 -515
-1920 0 -1919 0 -3 528 -3 527 -23 47 c-33 67 -104 134 -169 158 -63 24 -178
26 -235 5z"/>
</g>
</svg>
